<?xml version="1.0" encoding="utf-8"?>
<!-- Generator: Adobe Illustrator 19.1.0, SVG Export Plug-In . SVG Version: 6.00 Build 0)  -->
<svg version="1.1" id="Layer_1" xmlns="http://www.w3.org/2000/svg" xmlns:xlink="http://www.w3.org/1999/xlink" x="0px" y="0px"
	 viewBox="0 0 1000 1000" style="enable-background:new 0 0 1000 1000;" xml:space="preserve">
<style type="text/css">
	.st0{fill:#123984;}
	.st1{fill:#009DE2;}
	.st2{fill:#009CDE;}
	.st3{fill:#FFFFFF;}
	.st4{fill:#0F3572;}
</style>
<g>
	<g>
		<path class="st0" d="M226.9,684.5c0,20.4-8.4,36.8-25.3,49.3c-16.9,12.5-40.5,18.7-70.8,18.7H114l-12.9,55.7H56.8l39.5-171.1h61.5
			c11.2,0,20.9,0.8,29.2,2.3c8.3,1.5,15.5,4.2,21.5,7.9c6,3.8,10.5,8.6,13.7,14.6C225.3,668.1,226.9,675.6,226.9,684.5z
			 M179.8,688.8c0-6.7-2.4-11.6-7.3-14.8s-12-4.8-21.5-4.8h-17.8l-11.8,51.2h15.9c13.4,0,23.9-2.7,31.3-8.2
			C176.1,706.7,179.8,698.9,179.8,688.8z"/>
		<path class="st0" d="M308.4,794.6c-2.6,1.7-5.7,3.7-9.4,6.1s-7.1,4.3-10.2,5.7c-4.3,1.8-8.3,3.1-12.1,4c-3.8,0.9-9,1.4-15.6,1.4
			c-10.7,0-19.5-3-26.3-9c-6.8-6-10.2-13.9-10.2-23.5c0-10.2,2.4-18.8,7.2-25.9c4.8-7.1,12-12.8,21.5-17c8.9-4,19.5-6.9,31.7-8.6
			c12.3-1.8,25.6-3.1,39.9-3.9c0.1-0.5,0.3-1.2,0.5-2.2c0.3-1,0.4-2.2,0.4-3.5c0-5.4-2.5-9.2-7.6-11.4c-5.1-2.2-12.6-3.3-22.6-3.3
			c-6.8,0-14.3,1.1-22.6,3.4c-8.2,2.3-14.4,4.2-18.5,5.7h-3.8l6.1-30.6c4.8-1.2,12.3-2.6,22.4-4.1c10.1-1.5,20.2-2.3,30.2-2.3
			c20.2,0,35.1,2.6,44.5,7.9c9.5,5.3,14.2,13.5,14.2,24.6c0,1.5-0.1,3.5-0.4,6c-0.3,2.5-0.6,4.6-1.1,6.4l-20.2,87.8h-41.1
			L308.4,794.6z M319.4,747.4c-7.4,0.6-14.3,1.3-20.8,2.2c-6.5,0.8-12,2.1-16.5,3.7c-4.7,1.7-8.3,4.1-10.7,7.1
			c-2.5,3.1-3.7,7.1-3.7,12.2c0,4.4,1.6,7.6,4.9,9.4c3.3,1.8,8,2.7,14.3,2.7c4.1,0,8.4-0.9,13.1-2.8c4.7-1.9,9-4.3,13.1-7.2
			L319.4,747.4z"/>
		<path class="st0" d="M431.8,855.6h-45.5l32.9-49.9L398,679.3h42.3l11.2,84.5l49.1-84.5h43.7L431.8,855.6z"/>
		<path class="st1" d="M709.7,684.5c0,20.4-8.4,36.8-25.3,49.3c-16.9,12.5-40.5,18.7-70.8,18.7h-16.8l-12.9,55.7h-44.3L579,637.2
			h61.5c11.2,0,20.9,0.8,29.2,2.3c8.3,1.5,15.5,4.2,21.5,7.9c6,3.8,10.5,8.6,13.7,14.6C708.1,668.1,709.7,675.6,709.7,684.5z
			 M662.5,688.8c0-6.7-2.4-11.6-7.3-14.8s-12-4.8-21.5-4.8h-17.8l-11.8,51.2H620c13.4,0,23.9-2.7,31.3-8.2
			C658.8,706.7,662.5,698.9,662.5,688.8z"/>
		<path class="st1" d="M791.2,794.6c-2.6,1.7-5.7,3.7-9.4,6.1s-7.1,4.3-10.2,5.7c-4.3,1.8-8.3,3.1-12.1,4c-3.8,0.9-9,1.4-15.6,1.4
			c-10.7,0-19.5-3-26.3-9c-6.8-6-10.2-13.9-10.2-23.5c0-10.2,2.4-18.8,7.2-25.9c4.8-7.1,12-12.8,21.5-17c8.9-4,19.5-6.9,31.7-8.6
			c12.3-1.8,25.6-3.1,39.9-3.9c0.1-0.5,0.3-1.2,0.5-2.2c0.3-1,0.4-2.2,0.4-3.5c0-5.4-2.5-9.2-7.6-11.4c-5.1-2.2-12.6-3.3-22.6-3.3
			c-6.8,0-14.3,1.1-22.6,3.4c-8.2,2.3-14.4,4.2-18.5,5.7h-3.8l6.1-30.6c4.8-1.2,12.3-2.6,22.4-4.1c10.1-1.5,20.2-2.3,30.2-2.3
			c20.2,0,35.1,2.6,44.5,7.9c9.5,5.3,14.2,13.5,14.2,24.6c0,1.5-0.1,3.5-0.4,6c-0.3,2.5-0.6,4.6-1.1,6.4l-20.2,87.8H788L791.2,794.6
			z M802.2,747.4c-7.4,0.6-14.3,1.3-20.8,2.2c-6.5,0.8-12,2.1-16.5,3.7c-4.7,1.7-8.3,4.1-10.7,7.1c-2.5,3.1-3.7,7.1-3.7,12.2
			c0,4.4,1.6,7.6,4.9,9.4c3.3,1.8,8,2.7,14.3,2.7c4.1,0,8.4-0.9,13.1-2.8c4.7-1.9,9-4.3,13.1-7.2L802.2,747.4z"/>
		<path class="st1" d="M949.9,629.5l-41.3,178.8h-41.6l41.3-178.8H949.9z"/>
	</g>
	<g>
		<g>
			<g>
				<path class="st2" d="M754.6,298.1c0,54.6-22.7,98.7-68,132.2c-45.3,33.5-108.6,50.2-190,50.2h-45L417.1,630H298.2L408,171.2h161
					c30,0,56.1,2.1,78.5,6.2c22.3,4.1,41.6,11.2,57.8,21.3c16,10.1,28.3,23.2,36.7,39.3C750.4,254,754.6,274.1,754.6,298.1z"/>
				<path class="st3" d="M421.1,634.9H292l112.2-468.7H569c30.1,0,56.8,2.1,79.3,6.2c22.8,4.2,42.8,11.6,59.5,21.9
					c16.7,10.5,29.7,24.4,38.5,41.2c8.8,16.8,13.2,37.8,13.2,62.5c0,56-23.5,101.9-70,136.2c-46,34-110.9,51.2-193,51.2h-41.1
					L421.1,634.9z M304.5,625.1h108.7l34.5-149.5h48.9c79.9,0,142.9-16.6,187.1-49.3c21.9-16.2,38.6-35.2,49.5-56.4
					c10.9-21.2,16.4-45.4,16.4-71.8c0-23.1-4.1-42.6-12.1-58c-8-15.3-19.7-27.8-34.9-37.4c-15.6-9.7-34.5-16.6-56.1-20.6
					c-21.9-4-48-6.1-77.6-6.1H411.9L304.5,625.1z"/>
			</g>
		</g>
		<g>
			<g>
				<path class="st4" d="M701.8,247c0,54.6-22.7,98.7-68,132.2c-45.3,33.5-108.6,50.2-190,50.2h-45l-34.5,149.5H245.4L351.3,120
					h164.9c30,0,56.1,2.1,78.5,6.2c22.3,4.1,41.6,11.2,57.8,21.3c16,10.1,28.3,23.2,36.7,39.3C697.6,202.8,701.8,222.9,701.8,247z"
					/>
				<path class="st3" d="M368.2,583.8H239.2l108.1-468.7h168.9c30.1,0,56.8,2.1,79.3,6.2c22.8,4.2,42.8,11.6,59.5,21.9
					c16.7,10.5,29.7,24.4,38.5,41.2c8.8,16.8,13.2,37.8,13.2,62.5c0,56-23.5,101.9-70,136.2c-46,34-110.9,51.2-193,51.2h-41.1
					L368.2,583.8z M251.6,573.9h108.8l34.5-149.5h48.9c79.9,0,142.9-16.6,187.1-49.3c21.9-16.2,38.6-35.2,49.5-56.4
					c10.9-21.2,16.4-45.4,16.4-71.8c0-23.1-4.1-42.6-12.1-58c-8-15.3-19.7-27.8-34.9-37.4c-15.6-9.7-34.5-16.6-56.1-20.6
					c-21.9-4-48-6.1-77.6-6.1h-161L251.6,573.9z"/>
			</g>
		</g>
		<g>
			<g>
				<path class="st3" d="M579.6,263.3c-0.9,14-3.7,24.3-12.3,36.2c-8.5,11.9-18.5,19.6-31.9,26c-8.1,3.8-16.5,6.3-25.3,7.5
					c-8.8,1.2-19.3,1.9-31.6,1.9h-59.1l33.1-118.6h53.7c13.7,0,24.7,0.2,33,2.1c8.3,1.8,15.1,4.3,20.2,7.4
					c7.1,4.2,12.8,9.3,16.1,15.8C579.6,249.2,580.1,254.1,579.6,263.3z"/>
			</g>
		</g>
	</g>
</g>
</svg>
