<?xml version="1.0" encoding="utf-8"?>
<!-- Generator: Adobe Illustrator 18.1.0, SVG Export Plug-In . SVG Version: 6.00 Build 0)  -->
<svg version="1.1" id="Layer_1" xmlns="http://www.w3.org/2000/svg" xmlns:xlink="http://www.w3.org/1999/xlink" x="0px" y="0px"
	 viewBox="0 0 370.4 104.4" enable-background="new 0 0 370.4 104.4" xml:space="preserve">
<g>
	<path d="M49.3,88.9c-3.3,3.3-8.5,5.2-14.4,5.2c-6.4,0-11.2-1.6-15.6-7v6.3H7.7V10.6h11.9v29.8c4.3-5.1,9.2-6.6,15.5-6.6
		c5.9,0,11.1,2,14.3,5.2c5.9,5.9,6.6,15.9,6.6,24.9C56,72.9,55.3,83,49.3,88.9z M31.9,44.4c-10.7,0-12.3,9.1-12.3,19.6
		c0,10.5,1.6,19.7,12.3,19.7c10.7,0,12.2-9.2,12.2-19.7C44.1,53.4,42.6,44.4,31.9,44.4z" fill="#ffffff" />
	<path d="M82.4,93.5c-11.3,0-16.2-7.6-16.2-16.3V10.6h11.9v65.9c0,4.5,1.6,6.9,6.4,6.9h5.2v10.1H82.4z" fill="#ffffff" />
	<path d="M136.6,87.2c-3.8,4-9.7,7-17.7,7s-13.7-3-17.6-7c-5.6-5.8-7-13.3-7-23.3c0-9.9,1.4-17.3,7-23.2c3.8-4,9.5-7,17.6-7
		s13.9,3,17.7,7c5.6,5.8,7,13.3,7,23.2C143.5,73.9,142.1,81.4,136.6,87.2z M127.6,47.7c-2.2-2.2-5.2-3.4-8.7-3.4s-6.4,1.2-8.6,3.4
		c-3.6,3.6-4.1,9.8-4.1,16.2s0.5,12.6,4.1,16.2c2.2,2.2,5.1,3.5,8.6,3.5s6.5-1.3,8.7-3.5c3.6-3.6,4.1-9.8,4.1-16.2
		S131.2,51.3,127.6,47.7z" fill="#ffffff" />
	<path d="M177.6,94.2c-13.3,0-26.3-8.1-26.3-30.3c0-22.1,13-30.1,26.3-30.1c8.1,0,13.9,2.3,19.4,8.3l-8.1,7.9
		c-3.7-4.1-6.6-5.6-11.3-5.6c-4.5,0-8.4,1.9-10.9,5.2c-2.6,3.3-3.5,7.5-3.5,14.3s0.9,11.2,3.5,14.4c2.6,3.4,6.4,5.2,10.9,5.2
		c4.7,0,7.6-1.5,11.3-5.6l8.1,7.8C191.5,91.7,185.8,94.2,177.6,94.2z" fill="#ffffff" />
	<path d="M242.3,93.5l-16.5-27.2l-8.7,9.9v17.3h-11.9V10.6H217v51.1L240,34.5h14.4l-20.5,23.2l23,35.9H242.3z" fill="#ffffff" />
	<path d="M264.5,93.5V79.3h14.2v14.2H264.5z" fill="#ffffff" />
	<path d="M291.2,22.8V10.2h12.6v12.6H291.2z M291.5,93.5v-59h11.9v59H291.5z" fill="#ffffff" />
	<path d="M355.8,87.2c-3.8,4-9.7,7-17.7,7s-13.7-3-17.6-7c-5.6-5.8-7-13.3-7-23.3c0-9.9,1.4-17.3,7-23.2c3.8-4,9.5-7,17.6-7
		s13.9,3,17.7,7c5.6,5.8,7,13.3,7,23.2C362.7,73.9,361.3,81.4,355.8,87.2z M346.8,47.7c-2.2-2.2-5.2-3.4-8.7-3.4s-6.4,1.2-8.6,3.4
		c-3.6,3.6-4.1,9.8-4.1,16.2s0.5,12.6,4.1,16.2c2.2,2.2,5.1,3.5,8.6,3.5s6.5-1.3,8.7-3.5c3.6-3.6,4.1-9.8,4.1-16.2
		S350.4,51.3,346.8,47.7z" fill="#ffffff" />
</g>
</svg>
