<svg width="125" height="80" viewBox="0 0 125 80" fill="none" xmlns="http://www.w3.org/2000/svg">
<path d="M108.488 16.9451C108.954 25.5707 103.216 32.9642 95.2542 35.1822C95.1466 35.2526 95.0749 35.2878 95.0031 35.323C87.2206 37.365 81.4823 44.3359 81.4823 52.6448C81.4823 52.7152 81.4106 52.8208 81.3389 52.9264C80.2271 61.7633 72.5163 68.5934 63.2274 68.5934H62.8688C53.58 68.5934 45.8692 61.7633 44.7574 52.9264C44.6498 52.7856 44.6139 52.7152 44.6139 52.6448C44.6139 44.3712 38.8756 37.365 31.0931 35.323C31.0214 35.2878 30.9497 35.2526 30.8421 35.1822C22.8802 32.9642 17.1419 25.5707 17.6082 16.9451C18.0744 8.00254 25.3907 0.679524 34.5002 0.0458019C45.1877 -0.693541 54.0821 7.61526 54.0821 17.9309C54.0821 18.0365 54.0821 18.1773 54.0821 18.2829C54.5842 22.1205 56.3056 25.6763 58.9596 28.4225C61.1832 30.7109 64.8772 30.7109 67.1008 28.4225C69.7547 25.6763 71.5121 22.1205 71.9783 18.2829C71.9783 18.1773 71.9783 18.0365 71.9783 17.9309C71.9783 7.61526 80.8726 -0.693541 91.5602 0.0458019C100.634 0.679524 107.986 8.00254 108.488 16.9451Z" fill="#063A4F"/>
<path d="M106.515 79.8239C116.597 79.8239 124.77 71.8007 124.77 61.9036C124.77 52.0066 116.597 43.9834 106.515 43.9834C96.4336 43.9834 88.2606 52.0066 88.2606 61.9036C88.2606 71.8007 96.4336 79.8239 106.515 79.8239Z" fill="#063A4F"/>
<path d="M19.1143 80.0002C29.1962 80.0002 37.3691 71.977 37.3691 62.0799C37.3691 52.1828 29.1962 44.1597 19.1143 44.1597C9.03237 44.1597 0.859375 52.1828 0.859375 62.0799C0.859375 71.977 9.03237 80.0002 19.1143 80.0002Z" fill="#063A4F"/>
</svg>
